<?xml version="1.0" standalone="no"?>
<!DOCTYPE svg PUBLIC "-//W3C//DTD SVG 20010904//EN"
 "http://www.w3.org/TR/2001/REC-SVG-20010904/DTD/svg10.dtd">
<svg version="1.0" xmlns="http://www.w3.org/2000/svg"
 width="1418.000000pt" height="1192.000000pt" viewBox="0 0 1418.000000 1192.000000"
 preserveAspectRatio="xMidYMid meet">
<metadata>
Created by potrace 1.16, written by Peter Selinger 2001-2019
</metadata>
<g transform="translate(0.000000,1192.000000) scale(0.100000,-0.100000)"
fill="#000000" stroke="none">
<path d="M9342 11690 c-881 -53 -1736 -265 -2735 -681 -568 -236 -1269 -600
-1832 -952 -161 -100 -503 -325 -692 -455 -451 -310 -1229 -934 -1648 -1322
-168 -156 -234 -219 -394 -375 -494 -484 -821 -837 -1182 -1275 -175 -213
-313 -390 -307 -395 2 -3 104 64 226 148 122 83 259 178 304 209 46 31 245
168 443 303 454 312 1398 941 1655 1104 107 68 218 138 245 156 410 265 1197
729 1680 990 196 106 775 399 931 471 342 157 621 278 834 361 63 25 153 60
200 78 230 91 478 176 810 276 1208 365 2260 462 3281 304 592 -92 1169 -294
1629 -570 115 -69 322 -212 420 -289 197 -157 450 -411 612 -615 45 -57 84
-99 85 -94 6 16 -66 240 -118 373 -53 131 -176 370 -250 480 -476 717 -1240
1258 -2189 1550 -295 91 -718 170 -1100 205 -206 19 -706 27 -908 15z"/>
<path d="M9880 10179 c-301 -23 -488 -45 -705 -81 -610 -100 -1140 -247 -1795
-496 -1154 -438 -2393 -1147 -3712 -2123 -672 -497 -1422 -1117 -1914 -1580
-201 -190 -684 -663 -684 -670 0 -8 437 -337 665 -501 190 -136 423 -294 595
-403 69 -43 199 -126 290 -183 866 -549 1839 -1058 2718 -1423 1028 -427 2050
-715 2927 -825 413 -52 944 -68 1295 -40 851 69 1524 293 2120 704 285 197
595 485 804 747 99 124 275 385 330 490 l38 70 -69 -75 c-363 -399 -630 -626
-983 -840 -572 -345 -1203 -519 -1950 -537 -937 -22 -1956 198 -3180 687 -522
208 -1224 546 -1795 863 -468 260 -1046 612 -1530 932 -312 206 -629 424 -632
433 -2 9 397 350 712 608 1898 1554 3692 2638 5205 3144 544 182 968 282 1463
345 252 32 647 38 922 14 223 -19 589 -83 619 -108 6 -5 55 -24 109 -41 730
-234 1205 -717 1475 -1500 123 -358 182 -705 198 -1175 3 -104 7 -191 9 -193
10 -11 65 312 87 508 18 163 15 582 -5 746 -66 535 -235 979 -518 1362 -91
122 -303 339 -434 444 -494 396 -1144 623 -1970 688 -177 14 -577 19 -705 9z"/>
<path d="M11660 9289 c0 -4 16 -42 36 -85 191 -419 325 -905 386 -1404 27
-215 32 -724 10 -930 -108 -998 -477 -1816 -1100 -2437 -67 -68 -128 -123
-135 -123 -7 0 -67 162 -142 384 l-130 384 111 109 c150 147 239 267 338 455
332 632 354 1497 57 2178 -163 373 -439 680 -731 812 -169 77 -382 107 -556
79 -570 -92 -1035 -683 -1176 -1495 -29 -173 -37 -570 -14 -752 73 -568 293
-1034 624 -1325 39 -35 72 -68 72 -74 0 -9 -261 -792 -437 -1314 l-46 -133
-53 6 c-181 21 -455 96 -649 177 -955 397 -1720 1343 -2046 2529 -46 169 -121
532 -145 708 -10 67 -20 122 -24 122 -8 0 -42 -139 -69 -285 -45 -234 -55
-350 -55 -645 0 -308 15 -466 70 -738 199 -986 772 -1865 1549 -2379 72 -47
142 -94 157 -104 44 -31 337 -176 423 -210 273 -108 608 -195 890 -231 145
-18 530 -15 690 6 417 54 782 164 1143 345 563 282 1019 683 1368 1201 238
354 391 665 518 1057 130 402 193 782 203 1233 21 952 -266 1844 -815 2535
-86 108 -321 359 -322 344z"/>
<path d="M462 4599 c10 -25 165 -246 291 -414 106 -142 227 -291 452 -560 274
-326 773 -817 1185 -1166 520 -440 1122 -854 1679 -1156 886 -480 1750 -780
2650 -918 352 -54 552 -69 916 -69 344 0 497 8 780 44 780 99 1506 376 2005
764 95 73 260 217 260 226 0 4 -46 -6 -102 -21 -264 -74 -525 -128 -814 -168
-303 -42 -424 -52 -684 -60 -1129 -31 -2231 186 -3520 696 -333 132 -1008 437
-1231 556 -35 19 -152 79 -259 134 -652 335 -1423 786 -2695 1578 -417 260
-862 527 -904 543 -10 4 -13 1 -9 -9z"/>
</g>
</svg>
